<?xml version="1.0" standalone="no"?><!DOCTYPE svg PUBLIC "-//W3C//DTD SVG 1.1//EN" "http://www.w3.org/Graphics/SVG/1.1/DTD/svg11.dtd"><svg t="1625933897979" class="icon" viewBox="0 0 1024 1024" version="1.1" xmlns="http://www.w3.org/2000/svg" p-id="5767" xmlns:xlink="http://www.w3.org/1999/xlink" width="200" height="200"><defs><style type="text/css"></style></defs><path d="M577.6 593.9m-185.3 0a185.3 185.3 0 1 0 370.6 0 185.3 185.3 0 1 0-370.6 0Z" fill="#C60022" opacity=".2" p-id="5768"></path><path d="M801.58 892.7H730.1c-11.37 0-20.59-9.22-20.59-20.59s9.22-20.59 20.59-20.59h50.89V222.76c0-7.49-6.09-13.59-13.59-13.59H640.93c-11.37 0-20.59-9.22-20.59-20.59s9.22-20.59 20.59-20.59h126.48c30.2 0 54.76 24.57 54.76 54.76V872.1c0 11.38-9.22 20.6-20.59 20.6zM220.58 624.75c-11.37 0-20.59-9.22-20.59-20.59v-381.4c0-14.41 5.84-28.52 16.03-38.72 10.36-10.35 24.11-16.04 38.73-16.04h232.9c11.37 0 20.59 9.22 20.59 20.59s-9.22 20.59-20.59 20.59h-232.9c-3.58 0-7.08 1.45-9.62 3.98a13.69 13.69 0 0 0-3.97 9.6v381.41c0.01 11.36-9.21 20.58-20.58 20.58z" fill="#C60022" p-id="5769"></path><path d="M730.1 894.99c-9.44 0-18.28-5.89-21.58-15.3-3.96-11.27-14.64-18.86-26.58-18.88-11.87 0.02-22.55 7.6-26.51 18.87a22.86 22.86 0 0 1-21.58 15.3h-74.62a22.86 22.86 0 0 1-21.58-15.3c-3.96-11.27-14.64-18.86-26.58-18.88-11.87 0.02-22.56 7.6-26.51 18.88-3.22 9.16-11.87 15.3-21.58 15.3h-74.62c-9.68 0-18.31-6.09-21.56-15.21-4.03-11.34-14.71-18.96-26.58-18.96s-22.55 7.62-26.57 18.95a22.874 22.874 0 0 1-21.56 15.22H220.6c-12.63 0-22.88-10.24-22.88-22.88V741.42c0-12.63 10.24-22.88 22.88-22.88 12.63 0 22.88 10.24 22.88 22.88v107.81h34.51c13.42-20.94 36.76-34.18 62.23-34.18 25.46 0 48.81 13.23 62.23 34.18h46.38c13.36-20.9 36.7-34.13 62.23-34.18 25.59 0.04 48.93 13.27 62.3 34.18h46.35c13.36-20.9 36.7-34.13 62.23-34.18 31.38 0.05 59.38 19.94 69.75 49.47 4.19 11.92-2.09 24.98-14.01 29.16a22.65 22.65 0 0 1-7.58 1.31z" fill="#C1272D" p-id="5770"></path><path d="M466.04 719.04H330.91c-10.11 0-18.3-8.19-18.3-18.3V445.49c0-10.11 8.19-18.3 18.3-18.3h135.13c10.11 0 18.3 8.19 18.3 18.3v255.25c0 10.1-8.19 18.3-18.3 18.3z m-116.83-36.6h98.53V463.79h-98.53v218.65zM691.26 395.7H330.91c-10.11 0-18.3-8.19-18.3-18.3v-63.72c0-10.11 8.19-18.3 18.3-18.3h360.35c10.11 0 18.3 8.19 18.3 18.3v63.72c0 10.1-8.19 18.3-18.3 18.3z m-342.05-36.61h323.75v-27.11H349.21v27.11zM691.26 545.25H526.1c-10.11 0-18.3-8.19-18.3-18.3v-81.46c0-10.11 8.19-18.3 18.3-18.3h165.16c10.11 0 18.3 8.19 18.3 18.3v81.46c0 10.11-8.19 18.3-18.3 18.3z m-146.86-36.6h128.56v-44.86H544.4v44.86zM691.26 719.04H526.1c-10.11 0-18.3-8.19-18.3-18.3V580.3c0-10.11 8.19-18.3 18.3-18.3h165.16c10.11 0 18.3 8.19 18.3 18.3v120.44c0 10.1-8.19 18.3-18.3 18.3z m-146.86-36.6h128.56V598.6H544.4v83.84z" fill="#C60022" p-id="5771"></path><path d="M63.82 578.89c11.96-2.55 23.93-5.54 36-7.64 6.87-1.11 10.19-3.87 11.3-11.18 1.44-10.85 4.21-21.49 6.42-32.12 0.33-1.88 0.55-3.77 2.43-4.87 2.77 13.62 5.87 27.13 8.42 40.65 0.78 4.09 2.44 5.65 6.42 6.42 13.29 2.66 26.47 5.76 39.65 9.97-13.07 2.88-26.03 5.87-39.1 8.42-4.32 0.89-6.2 2.44-7.09 6.87-2.44 13.29-5.42 26.58-8.42 40.76-3.77-6.53-3.66-13.51-5.32-19.83-1.89-7.2-3.43-14.51-4.54-21.93-0.55-3.99-2.55-5.1-6.09-5.87-13.29-2.66-26.58-5.65-39.98-8.53 0.01-0.23-0.1-0.67-0.1-1.12z" fill="#C60022" opacity=".67" p-id="5772"></path><path d="M842.1 863.97c11.72-2.5 23.44-5.43 35.26-7.49 6.73-1.09 9.98-3.79 11.07-10.96 1.41-10.63 4.12-21.05 6.29-31.46 0.32-1.84 0.54-3.69 2.38-4.77 2.71 13.34 5.75 26.58 8.24 39.82 0.76 4.01 2.39 5.53 6.29 6.29 13.02 2.61 25.93 5.64 38.84 9.77-12.8 2.82-25.5 5.75-38.3 8.24-4.23 0.87-6.08 2.39-6.95 6.73-2.39 13.02-5.31 26.04-8.24 39.93-3.69-6.4-3.58-13.23-5.21-19.42-1.85-7.05-3.36-14.21-4.45-21.48-0.54-3.9-2.5-4.99-5.97-5.75-13.02-2.6-26.04-5.53-39.17-8.35 0.03-0.23-0.08-0.67-0.08-1.1z" fill="#FFA083" p-id="5773"></path><path d="M831.84 168.69c13.88-2.95 27.75-6.42 41.75-8.86 7.96-1.29 11.82-4.5 13.11-12.97 1.67-12.59 4.88-24.92 7.45-37.26 0.39-2.18 0.65-4.37 2.83-5.65 3.21 15.8 6.81 31.47 9.76 47.15 0.9 4.75 2.83 6.55 7.45 7.45 15.42 3.09 30.71 6.68 45.99 11.57-15.16 3.34-30.19 6.81-45.35 9.76-5.01 1.03-7.2 2.83-8.22 7.97-2.83 15.41-6.3 30.83-9.77 47.28-4.37-7.58-4.24-15.67-6.17-23-2.18-8.35-3.98-16.83-5.26-25.44-0.65-4.62-2.95-5.91-7.07-6.81-15.41-3.09-30.83-6.55-46.38-9.89-0.12-0.14-0.12-0.66-0.12-1.3z" fill="#C60022" opacity=".2" p-id="5774"></path><path d="M565.71 188.36m-23.46 0a23.46 23.46 0 1 0 46.92 0 23.46 23.46 0 1 0-46.92 0Z" fill="#C60022" p-id="5775"></path><path d="M221.42 676.38m-23.46 0a23.46 23.46 0 1 0 46.92 0 23.46 23.46 0 1 0-46.92 0Z" fill="#C60022" p-id="5776"></path></svg>