<?xml version="1.0" standalone="no"?><!DOCTYPE svg PUBLIC "-//W3C//DTD SVG 1.1//EN" "http://www.w3.org/Graphics/SVG/1.1/DTD/svg11.dtd"><svg t="1625934028521" class="icon" viewBox="0 0 1024 1024" version="1.1" xmlns="http://www.w3.org/2000/svg" p-id="1940" xmlns:xlink="http://www.w3.org/1999/xlink" width="200" height="200"><defs><style type="text/css"></style></defs><path d="M182.8864 417.5872m81.92 0l65.792 0q81.92 0 81.92 81.92l0 244.5824q0 81.92-81.92 81.92l-65.792 0q-81.92 0-81.92-81.92l0-244.5824q0-81.92 81.92-81.92Z" fill="#EA6381" p-id="1941"></path><path d="M330.5984 846.4896H264.8064a102.4 102.4 0 0 1-102.4-102.4V499.5072a102.4 102.4 0 0 1 102.4-102.4h65.792a102.4 102.4 0 0 1 102.4 102.4v244.5824a102.4 102.4 0 0 1-102.4 102.4zM264.8064 438.0672a61.44 61.44 0 0 0-61.44 61.44v244.5824a61.44 61.44 0 0 0 61.44 61.44h65.792a61.44 61.44 0 0 0 61.44-61.44V499.5072a61.44 61.44 0 0 0-61.44-61.44z" fill="#692F76" p-id="1942"></path><path d="M726.6304 826.0096h-353.28a81.92 81.92 0 0 1-81.92-81.92V257.9968a81.92 81.92 0 0 1 81.92-81.92h253.3888l181.8112 181.76v386.2528a81.92 81.92 0 0 1-81.92 81.92z" fill="#d81e06" p-id="1943"></path><path d="M726.6304 846.4896h-353.28a102.4 102.4 0 0 1-102.4-102.4V257.9968a102.4 102.4 0 0 1 102.4-102.4h261.888l193.792 193.792v394.7008a102.4 102.4 0 0 1-102.4 102.4z m-353.28-649.9328a61.44 61.44 0 0 0-61.44 61.44v486.0928a61.44 61.44 0 0 0 61.44 61.44h353.28a61.44 61.44 0 0 0 61.44-61.44V366.336l-169.7792-169.7792z" fill="#692F76" p-id="1944"></path><path d="M808.5504 378.3168h-161.3312a40.96 40.96 0 0 1-40.96-40.96v-161.28a20.48 20.48 0 0 1 34.9696-14.4896l181.76 181.76a20.48 20.48 0 0 1-14.4384 34.9696z m-161.3312-152.7808v111.8208h111.872z" fill="#692F76" p-id="1945"></path><path d="M397.5168 482.1504m20.48 0l255.488 0q20.48 0 20.48 20.48l0 78.4896q0 20.48-20.48 20.48l-255.488 0q-20.48 0-20.48-20.48l0-78.4896q0-20.48 20.48-20.48Z" fill="#FFFFFF" p-id="1946"></path><path d="M673.4848 622.08h-255.488a40.96 40.96 0 0 1-40.96-40.96V502.6304a40.96 40.96 0 0 1 40.96-40.96h255.488a40.96 40.96 0 0 1 40.96 40.96v78.4896a40.96 40.96 0 0 1-40.96 40.96z m0-40.96z m-255.488-78.4896v78.4896h255.4368V502.6304z" fill="#DC6985" p-id="1947"></path><path d="M515.2768 381.44h-117.76a25.6 25.6 0 1 1 0-51.2h117.76a25.6 25.6 0 0 1 0 51.2zM580.9664 739.84H397.5168a25.6 25.6 0 1 1 0-51.2h183.4496a25.6 25.6 0 0 1 0 51.2zM698.2144 739.84H655.36a25.6 25.6 0 0 1 0-51.2h43.008a25.6 25.6 0 0 1 0 51.2z" fill="#F3A175" p-id="1948"></path><path d="M759.0912 337.6128h-111.872V225.792l111.872 111.8208z" fill="#d81e06" p-id="1949"></path><path d="M759.0912 337.6128L647.2192 225.792v15.36l96.512 96.4608h15.36z" fill="#FFFEFE" p-id="1950"></path><path d="M774.3488 782.6944a61.44 61.44 0 0 1-47.7184 22.8352h-353.28a61.44 61.44 0 0 1-47.7696-22.8352z" fill="#a11a09" p-id="1951"></path><path d="M291.4304 805.5296h-26.624a61.44 61.44 0 0 1-47.7184-22.8352h61.44a102.4 102.4 0 0 0 12.9024 22.8352z" fill="#CC475F" p-id="1952"></path><path d="M606.2592 196.5568v22.8352H325.5808a61.44 61.44 0 0 1 47.7696-22.8352z" fill="#FFFEFE" p-id="1953"></path><path d="M417.9968 523.9296h255.4368v56.7296H417.9968z" fill="#d81e06" p-id="1954"></path><path d="M270.9504 438.0672V460.8H217.088a61.44 61.44 0 0 1 47.7184-22.8352z" fill="#F093AA" p-id="1955"></path></svg>